<svg xmlns="http://www.w3.org/2000/svg" viewBox="0 0 143.18 85.95"><g id="Layer_2" data-name="Layer 2"><g id="Layer_1-2" data-name="Layer 1"><path d="M130.18,83.85C-15.14,78,1.55,111.92,1.39,13.45a12,12,0,0,1,12-12C158.81,7.31,142-26.58,142.18,71.84A12,12,0,0,1,130.18,83.85Z" fill="#ed1c24"/><path d="M26.39,86C-4.09,85.69.39,75.14.09,40.62,1.61,32.16-3,12,4.21,4.27,3.13-3.44,126,2,130.18.45a13,13,0,0,1,13,13v58.4a13,13,0,0,1-13,13C81.16,82.87,60,85.23,26.39,86Zm-13-83.5C-3.82,2.61,4.08,31.17,2.08,40.66,1.65,63.14,1.43,74.42,6.73,79.6s16.82,4.72,39.68,3.72c19.38-.85,45.92-2,83.79-.47a11,11,0,0,0,11-11V13.45a11,11,0,0,0-11-11Z" fill="#231f20"/></g></g></svg>